<svg width="28" height="28" viewBox="0 0 28 28" fill="none" xmlns="http://www.w3.org/2000/svg">
    <path
        d="M15.3708 0.666626C16.8708 0.670626 17.6321 0.678626 18.2895 0.697293L18.5481 0.706626C18.8468 0.717293 19.1415 0.730626 19.4975 0.746626C20.9161 0.813293 21.8841 1.03729 22.7335 1.36663C23.6135 1.70529 24.3548 2.16396 25.0961 2.90396C25.7741 3.57049 26.2987 4.37674 26.6335 5.26663C26.9628 6.11596 27.1868 7.08396 27.2535 8.50396C27.2695 8.85863 27.2828 9.15329 27.2935 9.45329L27.3015 9.71196C27.3215 10.368 27.3295 11.1293 27.3321 12.6293L27.3335 13.624V15.3706C27.3367 16.3432 27.3265 17.3157 27.3028 18.288L27.2948 18.5466C27.2841 18.8466 27.2708 19.1413 27.2548 19.496C27.1881 20.916 26.9615 21.8826 26.6335 22.7333C26.2997 23.6237 25.7749 24.4301 25.0961 25.096C24.4294 25.7737 23.6232 26.2983 22.7335 26.6333C21.8841 26.9626 20.9161 27.1866 19.4975 27.2533C19.1811 27.2682 18.8646 27.2815 18.5481 27.2933L18.2895 27.3013C17.6321 27.32 16.8708 27.3293 15.3708 27.332L14.3761 27.3333H12.6308C11.6578 27.3367 10.6848 27.3264 9.71212 27.3026L9.45345 27.2946C9.13693 27.2826 8.82048 27.2689 8.50412 27.2533C7.08545 27.1866 6.11745 26.9626 5.26678 26.6333C4.37701 26.2991 3.57107 25.7744 2.90545 25.096C2.22685 24.4297 1.70175 23.6234 1.36679 22.7333C1.03745 21.884 0.813452 20.916 0.746785 19.496C0.73193 19.1796 0.718597 18.8631 0.706785 18.5466L0.700118 18.288C0.675548 17.3157 0.664436 16.3432 0.666785 15.3706V12.6293C0.663064 11.6568 0.672842 10.6842 0.696118 9.71196L0.705452 9.45329C0.716118 9.15329 0.729452 8.85863 0.745452 8.50396C0.812118 7.08396 1.03612 6.11729 1.36545 5.26663C1.70027 4.37583 2.22641 3.56932 2.90679 2.90396C3.57224 2.22592 4.37764 1.70128 5.26678 1.36663C6.11745 1.03729 7.08412 0.813293 8.50412 0.746626C8.85878 0.730626 9.15479 0.717293 9.45345 0.706626L9.71212 0.698626C10.6844 0.674936 11.6569 0.664713 12.6295 0.667959L15.3708 0.666626ZM14.0001 7.33329C12.232 7.33329 10.5363 8.03567 9.28607 9.28591C8.03583 10.5362 7.33345 12.2318 7.33345 14C7.33345 15.7681 8.03583 17.4638 9.28607 18.714C10.5363 19.9642 12.232 20.6666 14.0001 20.6666C15.7682 20.6666 17.4639 19.9642 18.7142 18.714C19.9644 17.4638 20.6668 15.7681 20.6668 14C20.6668 12.2318 19.9644 10.5362 18.7142 9.28591C17.4639 8.03567 15.7682 7.33329 14.0001 7.33329ZM14.0001 9.99996C14.5254 9.99987 15.0456 10.1032 15.5309 10.3042C16.0162 10.5051 16.4572 10.7997 16.8287 11.1711C17.2002 11.5424 17.4949 11.9833 17.696 12.4686C17.8971 12.9539 18.0007 13.474 18.0008 13.9993C18.0009 14.5246 17.8975 15.0447 17.6966 15.5301C17.4956 16.0154 17.2011 16.4564 16.8297 16.8279C16.4583 17.1994 16.0174 17.4941 15.5321 17.6952C15.0469 17.8963 14.5267 17.9999 14.0015 18C12.9406 18 11.9232 17.5785 11.173 16.8284C10.4229 16.0782 10.0015 15.0608 10.0015 14C10.0015 12.9391 10.4229 11.9217 11.173 11.1715C11.9232 10.4214 12.9406 9.99996 14.0015 9.99996M21.0015 5.33329C20.5594 5.33329 20.1355 5.50889 19.8229 5.82145C19.5104 6.13401 19.3348 6.55793 19.3348 6.99996C19.3348 7.44199 19.5104 7.86591 19.8229 8.17847C20.1355 8.49103 20.5594 8.66663 21.0015 8.66663C21.4435 8.66663 21.8674 8.49103 22.18 8.17847C22.4925 7.86591 22.6681 7.44199 22.6681 6.99996C22.6681 6.55793 22.4925 6.13401 22.18 5.82145C21.8674 5.50889 21.4435 5.33329 21.0015 5.33329Z"
        fill="#faed25" />
</svg>