<svg width="32" height="26" viewBox="0 0 32 26" fill="none" xmlns="http://www.w3.org/2000/svg">
    <path
        d="M10.052 26C22.128 26 28.734 15.994 28.734 7.33204C28.7367 7.05071 28.7327 6.76938 28.722 6.48804C30.0077 5.55653 31.1176 4.40394 32 3.08404C30.7982 3.61259 29.5253 3.96165 28.222 4.12004C29.5952 3.29946 30.6236 2.00807 31.116 0.486044C29.8265 1.25149 28.4144 1.78807 26.942 2.07204C25.9524 1.01809 24.6428 0.319879 23.2162 0.0855585C21.7895 -0.148762 20.3254 0.0938864 19.0507 0.775918C17.7759 1.45795 16.7616 2.5413 16.1649 3.85816C15.5682 5.17503 15.4224 6.65191 15.75 8.06004C13.1394 7.92977 10.5853 7.25187 8.25366 6.07037C5.92202 4.88888 3.86495 3.2302 2.216 1.20204C1.37916 2.64833 1.1239 4.35881 1.50201 5.98641C1.88013 7.614 2.86329 9.03679 4.252 9.96604C3.21082 9.9324 2.19239 9.65278 1.28 9.15004V9.24004C1.28255 10.7548 1.80764 12.2223 2.76665 13.3948C3.72565 14.5674 5.05984 15.3731 6.544 15.676C5.98054 15.8313 5.39846 15.9087 4.814 15.906C4.40184 15.9103 3.99033 15.8721 3.586 15.792C4.00479 17.0966 4.82155 18.2374 5.92167 19.0541C7.02179 19.8709 8.35004 20.3226 9.72 20.346C7.39221 22.172 4.51849 23.163 1.56 23.16C1.0386 23.164 0.517492 23.1339 0 23.07C3.00284 24.985 6.49053 26.0016 10.052 26Z"
        fill="#faed25" />
</svg>