<?xml version="1.0" standalone="no"?>
<!DOCTYPE svg PUBLIC "-//W3C//DTD SVG 20010904//EN" "http://www.w3.org/TR/2001/REC-SVG-20010904/DTD/svg10.dtd">
<svg version="1.0" xmlns="http://www.w3.org/2000/svg" width="132.000000pt" height="204.000000pt"
    viewBox="0 0 132.000000 204.000000" preserveAspectRatio="xMidYMid meet">

    <g transform="translate(0.000000,204.000000) scale(0.100000,-0.100000)" fill="#faed25" stroke="none">
        <path d="M515 1424 c-27 -8 -57 -14 -65 -14 -141 7 -243 -14 -262 -56 -9 -20
-6 -35 25 -94 21 -38 37 -72 37 -75 0 -3 -22 -5 -49 -5 -88 0 -90 -5 -104
-229 l-11 -194 23 -18 c29 -23 136 -25 195 -4 38 13 40 13 67 -16 33 -36 72
-38 184 -9 100 26 150 26 182 0 14 -11 34 -20 45 -20 44 0 117 61 133 111 7
20 8 19 26 -9 24 -40 52 -58 117 -71 103 -21 166 -5 178 47 4 15 14 36 24 47
59 67 53 151 -13 214 l-25 23 33 29 c53 47 64 81 56 174 -9 90 -27 128 -71
144 -38 13 -89 -2 -119 -33 l-22 -24 -47 18 c-26 10 -61 26 -78 34 -17 9 -53
18 -80 21 -27 3 -70 8 -95 11 -41 5 -70 -2 -131 -34 -5 -2 -8 3 -8 12 0 36
-61 45 -145 20z m105 -124 c8 -121 3 -130 -64 -130 -72 0 -78 11 -65 115 6 44
13 83 17 87 9 9 51 16 82 14 24 -1 25 -4 30 -86z m206 72 c6 -4 13 -15 17 -24
5 -16 0 -18 -38 -18 -29 0 -45 4 -45 13 0 6 -8 3 -16 -8 -11 -14 -14 -34 -11
-63 5 -50 13 -60 29 -44 9 9 9 12 0 12 -7 0 -12 11 -12 25 0 21 5 25 28 25 52
0 73 -11 66 -33 -12 -38 -65 -87 -95 -87 -32 0 -64 35 -74 81 -8 37 21 99 55
116 28 14 79 17 96 5z m126 -108 c-4 -117 14 -121 27 -6 4 39 10 74 12 77 10
10 69 -17 69 -31 0 -23 -21 -107 -36 -141 -8 -20 -23 -35 -39 -39 -60 -15 -87
28 -95 150 -4 50 -5 94 -3 97 1 4 17 3 35 0 l33 -7 -3 -100z m-606 21 l22 -70
1 73 c1 71 1 72 28 72 l26 0 -6 -102 c-5 -89 -9 -105 -28 -120 -12 -10 -26
-18 -33 -18 -11 0 -116 188 -116 208 0 12 48 32 69 29 9 -1 24 -31 37 -72z
m904 35 c12 -22 13 -80 2 -98 -5 -7 -28 -18 -53 -25 -38 -11 -44 -17 -47 -42
-3 -25 -2 -27 12 -16 9 8 16 19 16 26 0 11 42 25 77 25 20 0 -8 -52 -43 -79
-105 -82 -170 89 -76 200 43 52 87 56 112 9z m-945 -226 c17 -17 36 -33 44
-35 25 -9 2 -61 -49 -111 l-48 -49 29 -15 c41 -21 65 -60 49 -79 -17 -20 -75
-35 -139 -35 l-54 0 7 123 c4 67 9 148 13 181 l6 58 56 -4 c46 -3 61 -10 86
-34z m500 -46 c10 -84 24 -109 25 -42 0 56 9 64 74 64 l29 0 -7 -62 c-14 -117
-70 -236 -123 -261 -22 -10 -28 -8 -44 12 -31 38 -25 68 16 81 28 9 39 9 50 0
12 -10 15 -9 15 8 0 18 -6 20 -46 19 -40 -2 -49 2 -74 30 -33 36 -50 88 -50
150 l0 42 48 6 c26 4 52 8 57 10 6 2 13 4 17 4 3 1 9 -27 13 -61z m-207 24
c23 -23 47 -166 38 -227 -9 -54 -30 -72 -114 -91 -95 -23 -109 -20 -121 24
-22 76 -6 262 24 291 27 26 148 28 173 3z m533 -29 c49 -10 119 -83 119 -125
0 -18 -6 -41 -14 -50 -12 -16 -15 -15 -49 8 -41 27 -44 39 -21 72 20 30 10 44
-21 30 -34 -15 -31 -42 11 -104 62 -89 38 -126 -71 -107 -80 14 -107 35 -103
77 2 26 8 32 32 34 17 2 36 -4 50 -15 27 -24 76 -46 76 -34 0 19 -56 52 -112
68 -55 15 -58 18 -58 47 0 52 11 74 43 90 35 17 67 20 118 9z" />
        <path d="M541 1293 c1 -35 14 -70 21 -57 3 5 8 26 12 47 6 33 5 37 -14 37 -15
0 -20 -6 -19 -27z" />
        <path d="M1163 1265 c-3 -9 -3 -18 0 -22 10 -10 37 6 37 22 0 20 -29 20 -37 0z" />
        <path d="M230 1013 c0 -28 3 -34 10 -23 13 20 13 47 0 55 -6 4 -10 -9 -10 -32z" />
        <path d="M497 973 c-10 -9 -9 -93 1 -93 20 1 28 19 24 58 -4 40 -11 50 -25 35z" />
    </g>
</svg>