<svg width="32" height="24" viewBox="0 0 32 24" fill="none" xmlns="http://www.w3.org/2000/svg">
    <path fill-rule="evenodd" clip-rule="evenodd"
        d="M12.7815 16.1378V7.15893C15.969 8.65882 18.4377 10.1077 21.3575 11.6699C18.9493 13.0054 15.969 14.5039 12.7815 16.1378ZM30.5456 2.6933C29.9958 1.96889 29.0586 1.40499 28.0609 1.2183C25.1284 0.661423 6.83358 0.659839 3.90264 1.2183C3.10257 1.36829 2.39014 1.73082 1.77813 2.29408C-0.80058 4.68752 0.00746589 17.5228 0.629035 19.6019C0.890411 20.5018 1.2283 21.1509 1.65384 21.5769C2.20209 22.1401 2.95275 22.528 3.81497 22.7019C6.22953 23.2013 18.6689 23.4806 28.0099 22.7769C28.8706 22.6269 29.6324 22.2266 30.2332 21.6394C32.6175 19.2555 32.4549 5.69946 30.5456 2.6933Z"
        fill="#000000" />
</svg>